<svg xmlns="http://www.w3.org/2000/svg" viewBox="0 0 48 48" width="48" height="48">
  <defs>
    <linearGradient id="flame" x1="0%" y1="100%" x2="0%" y2="0%">
      <stop offset="0%" style="stop-color:#FF4D4D;stop-opacity:1" />
      <stop offset="100%" style="stop-color:#FF8C00;stop-opacity:1" />
    </linearGradient>
  </defs>
  <!-- Flame -->
  <path d="M24 4 C20 12 16 18 14 24 C12 30 14 36 18 40 C20 42 22 44 24 44 C26 44 28 42 30 40 C34 36 36 30 34 24 C32 18 28 12 24 4Z" fill="url(#flame)"/>
  <!-- Spatula handle -->
  <rect x="21" y="28" width="6" height="14" rx="2" fill="white" stroke="#1A1A1A" stroke-width="1.5"/>
  <!-- Spatula head -->
  <rect x="18" y="18" width="12" height="12" rx="3" fill="white" stroke="#1A1A1A" stroke-width="1.5"/>
  <!-- Spatula slots -->
  <rect x="20" y="21" width="2" height="6" rx="1" fill="#1A1A1A"/>
  <rect x="23" y="21" width="2" height="6" rx="1" fill="#1A1A1A"/>
  <rect x="26" y="21" width="2" height="6" rx="1" fill="#1A1A1A"/>
</svg>
